<?xml version="1.0" encoding="utf-8"?>
<!-- Generator: Adobe Illustrator 16.0.0, SVG Export Plug-In . SVG Version: 6.00 Build 0)  -->
<!DOCTYPE svg PUBLIC "-//W3C//DTD SVG 1.1//EN" "http://www.w3.org/Graphics/SVG/1.1/DTD/svg11.dtd">
<svg version="1.1" xmlns="http://www.w3.org/2000/svg" xmlns:xlink="http://www.w3.org/1999/xlink" x="0px" y="0px" width="110px"
	 height="110px" viewBox="0 0 110 110" enable-background="new 0 0 110 110" xml:space="preserve">
<g id="Layer_1" display="none">
	<rect id="BG" x="-657.71" y="-5" display="inline" fill="#FFFFFF" width="1920" height="1080"/>
	<rect id="TopNav" x="-657.71" y="-5" display="inline" fill="#DFDEDE" width="1920" height="120"/>
	<g display="inline">
		<circle fill="#CFCECE" cx="55" cy="55" r="47.71"/>
		<g>
			<path fill="#2F2F2F" d="M89,40H70V21c0-3.3-2.7-6-6-6H46c-3.3,0-6,2.7-6,6v19H21c-3.3,0-6,2.7-6,6v18c0,3.3,2.7,6,6,6h19v19
				c0,3.3,2.7,6,6,6h18c3.3,0,6-2.7,6-6V70h19c3.3,0,6-2.7,6-6V46C95,42.701,92.3,40,89,40z"/>
			<circle fill="#1E1E1E" cx="55" cy="55" r="10"/>
			<polygon fill="#1E1E1E" points="35,45 20,55 35,65 			"/>
			<polygon fill="#1E1E1E" points="45,35 55,20 65,35 			"/>
			<polygon fill="#1E1E1E" points="45,75 55,90 65,75 			"/>
			<polygon fill="#1E1E1E" points="75,45 90,55 75,65 			"/>
		</g>
	</g>
</g>
<g id="Layer_1_copy">
	<rect id="BG_1_" x="-657.71" y="-5" display="none" fill="#FFFFFF" width="1920" height="1080"/>
	<rect id="TopNav_1_" x="-657.71" y="-5" display="none" fill="#DFDEDE" width="1920" height="120"/>
	<g display="none">
		<circle display="inline" fill="#CFCECE" cx="55" cy="55" r="47.71"/>
		<g display="inline">
			<path fill="#2F2F2F" d="M89,40H70V21c0-3.3-2.7-6-6-6H46c-3.3,0-6,2.7-6,6v19H21c-3.3,0-6,2.7-6,6v18c0,3.3,2.7,6,6,6h19v19
				c0,3.3,2.7,6,6,6h18c3.3,0,6-2.7,6-6V70h19c3.3,0,6-2.7,6-6V46C95,42.701,92.3,40,89,40z"/>
			<circle fill="#1E1E1E" cx="55" cy="55" r="10"/>
			<polygon fill="#1E1E1E" points="35,45 20,55 35,65 			"/>
			<polygon fill="#1E1E1E" points="45,35 55,20 65,35 			"/>
			<polygon fill="#1E1E1E" points="45,75 55,90 65,75 			"/>
			<polygon fill="#1E1E1E" points="75,45 90,55 75,65 			"/>
		</g>
	</g>
	<g>
		<g>
			<path fill="#CFCECE" d="M107.593,38.906c4.023,13.148-3.442,27.198-16.59,31.221L33.628,87.685
				C20.48,91.708,6.431,84.243,2.407,71.095l0,0c-4.023-13.148,3.442-27.198,16.59-31.221l57.374-17.558
				C89.52,18.292,103.569,25.758,107.593,38.906L107.593,38.906z"/>
		</g>
		<circle fill="#E03B57" cx="26.313" cy="63.779" r="20"/>
		<circle fill="#E03B57" cx="83.687" cy="46.221" r="20"/>
		<g>
			<path fill="#9E1C2E" d="M21.086,70.361v-15.6c0-0.304,0.136-0.543,0.408-0.72c0.272-0.176,0.592-0.264,0.96-0.264h4.632
				c3.216,0,4.824,1.408,4.824,4.224c0,1.952-0.68,3.224-2.04,3.816c0.816,0.32,1.432,0.772,1.848,1.356s0.624,1.436,0.624,2.556
				v0.504c0,1.776-0.432,3.068-1.296,3.876c-0.864,0.808-2.032,1.212-3.504,1.212h-5.088c-0.4,0-0.729-0.096-0.984-0.288
				C21.214,70.841,21.086,70.617,21.086,70.361z M24.182,60.593h2.688c0.624,0,1.1-0.184,1.428-0.552s0.492-0.872,0.492-1.512
				c0-0.624-0.172-1.116-0.516-1.476c-0.344-0.36-0.82-0.54-1.428-0.54h-2.664V60.593z M24.182,68.585h2.712
				c1.552,0,2.328-0.872,2.328-2.616v-0.384c0-0.896-0.196-1.544-0.588-1.944c-0.392-0.399-0.972-0.6-1.74-0.6h-2.712V68.585z"/>
		</g>
		<g>
			<path fill="#9E1C2E" d="M76.633,52.378c0-0.034,0.016-0.12,0.048-0.256l4.637-15.095c0.096-0.302,0.332-0.537,0.708-0.703
				c0.376-0.166,0.804-0.249,1.284-0.249s0.912,0.092,1.296,0.276c0.384,0.184,0.624,0.444,0.72,0.78l4.632,15.096
				c0.032,0.128,0.048,0.208,0.048,0.24c0,0.352-0.216,0.656-0.648,0.912s-0.872,0.384-1.32,0.384c-0.592,0-0.944-0.208-1.056-0.624
				l-0.912-3.192h-5.142l-0.894,3.194c-0.126,0.415-0.523,0.622-1.189,0.622c-0.523,0-1.022-0.132-1.498-0.397
				S76.633,52.772,76.633,52.378z M81.613,47.5h4.15l-2.088-7.368L81.613,47.5z"/>
		</g>
	</g>
</g>
</svg>
