<?xml version="1.0" encoding="utf-8"?>
<!-- Generator: Adobe Illustrator 16.0.0, SVG Export Plug-In . SVG Version: 6.00 Build 0)  -->
<!DOCTYPE svg PUBLIC "-//W3C//DTD SVG 1.1//EN" "http://www.w3.org/Graphics/SVG/1.1/DTD/svg11.dtd">
<svg version="1.1" xmlns="http://www.w3.org/2000/svg" xmlns:xlink="http://www.w3.org/1999/xlink" x="0px" y="0px"
	 width="107.367px" height="67.55px" viewBox="0 0 107.367 67.55" enable-background="new 0 0 107.367 67.55" xml:space="preserve">
<g id="Layer_1" display="none">
	<rect id="BG" x="-1161.408" y="-26.225" display="inline" fill="#FFFFFF" width="1920" height="1080"/>
	<rect id="TopNav" x="-1161.408" y="-26.225" display="inline" fill="#DFDEDE" width="1920" height="120"/>
	<g display="inline">
		<g>
			<path fill="#CFCECE" d="M106.276,17.681c4.023,13.148-3.442,27.198-16.591,31.221L32.313,66.459
				c-13.148,4.023-27.198-3.442-31.222-16.59l0,0c-4.023-13.148,3.442-27.198,16.591-31.221L75.055,1.09
				C88.203-2.933,102.253,4.533,106.276,17.681L106.276,17.681z"/>
		</g>
		<circle fill="#E03B57" cx="24.997" cy="42.553" r="20"/>
		<circle fill="#E03B57" cx="82.37" cy="24.996" r="20"/>
		<text transform="matrix(1 0 0 1 18.3301 50.0952)" fill="#9E1C2E" font-family="'Dosis-Bold'" font-size="24">B</text>
		<text transform="matrix(1 0 0 1 75.4707 32.5381)" fill="#9E1C2E" font-family="'Dosis-Bold'" font-size="24">A</text>
	</g>
</g>
<g id="Layer_1_copy">
	<rect id="BG_1_" x="-1161.408" y="-26.225" display="none" fill="#FFFFFF" width="1920" height="1080"/>
	<rect id="TopNav_1_" x="-1161.408" y="-26.225" display="none" fill="#DFDEDE" width="1920" height="120"/>
	<g>
		<g>
			<path fill="#CFCECE" d="M106.276,17.681c4.023,13.148-3.442,27.198-16.591,31.221L32.313,66.459
				c-13.148,4.023-27.198-3.442-31.222-16.59l0,0c-4.023-13.148,3.442-27.198,16.591-31.221L75.055,1.09
				C88.203-2.933,102.253,4.533,106.276,17.681L106.276,17.681z"/>
		</g>
		<circle fill="#E03B57" cx="24.997" cy="42.553" r="20"/>
		<circle fill="#E03B57" cx="82.37" cy="24.996" r="20"/>
		<text transform="matrix(1 0 0 1 18.3301 50.0952)" fill="#9E1C2E" font-family="'Dosis-Bold'" font-size="24">B</text>
		<text transform="matrix(1 0 0 1 75.4707 32.5381)" fill="#9E1C2E" font-family="'Dosis-Bold'" font-size="24">A</text>
	</g>
</g>
</svg>
